# xmcd
#
# Track frame offsets:
# 150
# 69869
# 119742
# 160157
# 216112
#
# Disc length: 4129 seconds
#
#
# Revision: 0
# Processed by: cddbd v1.5.2PL0 Copyright (c) Steve Scherf et al.
# Submitted via: FreeRIP 2.951 
#
DISCID=42101f05
DTITLE=Various Artist - Hooked on Country
DYEAR=1900
DGENRE=Country
TTITLE0=Round One
TTITLE1=Round Two
TTITLE2=Round Three
TTITLE3=Round Four
TTITLE4=Round Five
EXTD=
EXTT0=
EXTT1=
EXTT2=
EXTT3=
EXTT4=
PLAYORDER=
